<?xml version="1.0" standalone="no"?>
<!DOCTYPE svg PUBLIC "-//W3C//DTD SVG 20010904//EN"
 "http://www.w3.org/TR/2001/REC-SVG-20010904/DTD/svg10.dtd">
<svg version="1.0" xmlns="http://www.w3.org/2000/svg"
 width="700.000000pt" height="700.000000pt" viewBox="0 0 700.000000 700.000000"
 preserveAspectRatio="xMidYMid meet">
<metadata>
Created by potrace 1.11, written by Peter Selinger 2001-2013
</metadata>
<g transform="translate(0.000000,700.000000) scale(0.100000,-0.100000)"
fill="#000000" stroke="none">
<path d="M2216 6983 c-95 -29 -178 -100 -221 -190 -33 -69 -38 -103 -39 -273
l0 -146 -386 0 c-275 -1 -401 -5 -440 -14 -249 -58 -431 -260 -454 -505 -11
-115 13 -145 139 -169 111 -21 273 -87 405 -164 140 -81 297 -214 396 -334 92
-110 208 -326 264 -487 38 -113 81 -297 73 -317 -4 -12 -65 -14 -382 -14 -224
0 -401 -4 -437 -11 -205 -37 -391 -213 -442 -419 -37 -150 -20 -219 60 -240
233 -60 383 -121 527 -215 172 -111 291 -231 439 -441 34 -49 117 -219 150
-309 31 -88 79 -268 86 -327 l4 -38 -381 0 c-429 0 -472 -5 -590 -65 -179 -91
-294 -265 -312 -469 -8 -102 17 -127 165 -161 348 -80 683 -326 887 -650 109
-173 218 -485 228 -651 10 -162 85 -278 224 -343 l56 -26 1265 0 1265 0 66 32
c136 67 205 176 214 337 12 221 188 643 332 798 33 34 42 105 19 140 -16 24
-15 25 37 74 101 94 91 89 127 64 42 -30 74 -22 169 39 140 89 334 169 488
201 39 8 70 21 83 35 39 42 33 158 -17 285 -66 169 -211 295 -392 341 -67 17
-113 19 -462 19 l-387 0 3 32 c2 18 9 56 15 83 6 28 13 57 15 65 18 88 97 296
148 389 155 285 363 488 642 627 94 47 228 98 285 109 151 30 175 49 174 138
-1 254 -187 483 -439 542 -62 14 -112 16 -530 18 l-310 2 1 25 c3 61 47 231
85 330 11 30 25 69 31 85 12 33 77 159 111 215 182 305 526 558 877 645 128
32 142 39 164 76 29 48 9 182 -44 294 -83 178 -266 305 -465 324 -38 3 -224 6
-412 5 -189 0 -344 2 -344 5 -1 3 -3 76 -4 161 -2 114 -7 168 -20 203 -29 86
-74 144 -145 194 -97 66 -24 63 -1384 62 -1073 0 -1237 -2 -1280 -16z"/>
</g>
</svg>
